<svg xmlns="http://www.w3.org/2000/svg" xmlns:xlink="http://www.w3.org/1999/xlink" viewBox="0,0,256,256" width="45px" height="45px" fill-rule="nonzero"><g fill="#fcee19" fill-rule="nonzero" stroke="none" stroke-width="1" stroke-linecap="butt" stroke-linejoin="miter" stroke-miterlimit="10" stroke-dasharray="" stroke-dashoffset="0" font-family="none" font-weight="none" font-size="none" text-anchor="none" style="mix-blend-mode: normal"><g transform="scale(16,16)"><path d="M6.5,1c-0.82422,0 -1.5,0.67578 -1.5,1.5v0.5h-2.5c-0.82422,0 -1.5,0.67578 -1.5,1.5v8c0,0.82422 0.67578,1.5 1.5,1.5h11c0.82422,0 1.5,-0.67578 1.5,-1.5v-8c0,-0.82422 -0.67578,-1.5 -1.5,-1.5h-2.5v-0.5c0,-0.82422 -0.67578,-1.5 -1.5,-1.5zM6.5,2h3c0.28125,0 0.5,0.21875 0.5,0.5v0.5h-4v-0.5c0,-0.28125 0.21875,-0.5 0.5,-0.5zM2.5,4h11c0.28125,0 0.5,0.21875 0.5,0.5v4.5h-12v-4.5c0,-0.28125 0.21875,-0.5 0.5,-0.5zM7,7v1h2v-1zM2,10h12v2.5c0,0.28125 -0.21875,0.5 -0.5,0.5h-11c-0.28125,0 -0.5,-0.21875 -0.5,-0.5z"></path></g></g></svg>